<svg width="1600" height="1188" viewBox="0 0 1600 1188" fill="none" xmlns="http://www.w3.org/2000/svg">
<path opacity="0.7" d="M1599.5 381C1480.33 381 1362.32 401.874 1252.21 442.429C1142.11 482.985 1042.07 542.428 957.801 617.365C873.531 692.302 806.685 781.265 761.079 879.175C715.473 977.084 692 1082.02 692 1188L1599.5 1188V381Z" fill="#FF9B00"/>
<path opacity="0.7" d="M-3.05176e-05 520C56.4684 520 112.384 508.878 164.554 487.268C216.724 465.659 264.127 433.985 304.056 394.056C343.985 354.127 375.659 306.724 397.268 254.554C418.878 202.384 430 146.468 430 90H0L-3.05176e-05 520Z" fill="#ADCE53"/>
<path opacity="0.7" d="M580 1188C580 1116.95 564.998 1046.61 535.85 980.968C506.702 915.331 463.98 855.692 410.122 805.455C356.264 755.219 292.325 715.369 221.956 688.181C151.587 660.993 76.1666 647 -0.00012207 647L0 1188H580Z" fill="#18A8E5"/>
</svg>
